# This file uses centimeters as units for non-parametric coordinates.

mtllib Geysir_Low.mtl
g default
v -1.244387 -0.018915 1.210212
v -0.999399 -0.018915 1.210212
v -0.749770 -0.018915 1.210212
v -0.491889 -0.018915 1.210629
v -0.205176 -0.018915 1.213245
v 0.099547 -0.018915 1.217768
v 0.416037 -0.018916 1.223419
v 0.734907 -0.018916 1.229251
v 1.042600 -0.018916 1.234234
v 1.327072 -0.018916 1.237455
v 1.585538 -0.018916 1.238702
v -1.272511 -0.018915 0.968170
v -1.026997 0.070318 0.968170
v -0.764953 0.134230 0.944594
v -0.490288 0.175925 0.914096
v -0.213529 0.173615 0.956130
v 0.091754 0.146895 0.975227
v 0.407834 0.094030 0.980754
v 0.728233 0.035832 0.986702
v 1.041243 0.020695 0.991915
v 1.343211 0.006828 0.995327
v 1.610138 -0.018916 0.996659
v -1.302598 -0.018914 0.726128
v -1.056442 0.132961 0.726128
v -0.775280 0.256965 0.665764
v -0.487522 0.345714 0.607001
v -0.218602 0.376684 0.673860
v 0.075484 0.358735 0.732395
v 0.395498 0.299631 0.737776
v 0.719334 0.220340 0.743864
v 1.078512 0.158651 0.749423
v 1.420878 0.046449 0.753157
v 1.698150 -0.018915 0.754618
v -1.328828 -0.018914 0.484085
v -1.071549 0.171703 0.484085
v -0.768612 0.353457 0.446062
v -0.513415 0.481001 0.425899
v -0.251963 0.543533 0.469574
v 0.057996 0.550925 0.489496
v 0.381743 0.498512 0.494705
v 0.721364 0.402531 0.500906
v 1.135099 0.297295 0.506848
v 1.524217 0.132152 0.510974
v 1.815062 -0.018915 0.512574
v -1.346346 -0.018914 0.242042
v -1.074557 0.202960 0.242042
v -0.767967 0.423662 0.241863
v -0.536226 0.575837 0.242042
v -0.268816 0.672971 0.243365
v 0.046168 0.709955 0.246783
v 0.370450 0.635674 0.251851
v 0.718989 0.532893 0.258098
v 1.169791 0.389971 0.264350
v 1.601445 0.188805 0.268824
v 1.910002 -0.018914 0.270532
v -1.352449 -0.018915 0.000000
v -1.091573 0.207244 0.000000
v -0.796610 0.452964 0.000000
v -0.552853 0.624134 0.000000
v -0.271964 0.747583 0.001103
v 0.365698 0.721232 0.009457
v 0.712385 0.601752 0.015712
v 1.172726 0.424945 0.022086
v 1.625418 0.220005 0.026741
v 1.945515 -0.018914 0.028489
v -1.346346 -0.018914 -0.242042
v -1.096486 0.213375 -0.242042
v -0.828705 0.426265 -0.242042
v -0.558538 0.602043 -0.242042
v -0.272817 0.712473 -0.241117
v 0.038331 0.768526 -0.237932
v 0.359514 0.703242 -0.233064
v 0.695166 0.598160 -0.227037
v 1.133930 0.427619 -0.220804
v 1.576522 0.217212 -0.216345
v 1.893897 -0.018914 -0.214776
v -1.328828 -0.018914 -0.484085
v -1.080986 0.194943 -0.484085
v -0.820050 0.372902 -0.484085
v -0.551137 0.501433 -0.484085
v -0.272488 0.569953 -0.483449
v 0.031852 0.614903 -0.480612
v 0.346455 0.596006 -0.476121
v 0.664318 0.518198 -0.459218
v 1.052117 0.384806 -0.415454
v 1.447599 0.185115 -0.461488
v 1.751258 -0.018914 -0.460327
v -1.302598 -0.018914 -0.726128
v -1.056658 0.162744 -0.726128
v -0.800422 0.294404 -0.726128
v -0.537147 0.344295 -0.726128
v -0.269138 0.350420 -0.725896
v 0.021136 0.417081 -0.723774
v 0.322314 0.423111 -0.720035
v 0.623996 0.384415 -0.678947
v 0.942763 0.288769 -0.608829
v 1.276321 0.157431 -0.678540
v 1.562432 -0.018914 -0.707596
v -1.272628 -0.018915 -0.968170
v -1.027625 0.084777 -0.968170
v -0.775442 0.157369 -0.968170
v -0.518260 0.187666 -0.968170
v -0.259738 0.194396 -0.968170
v 0.008573 0.222848 -0.967182
v 0.288721 0.230408 -0.964626
v 0.573936 0.194905 -0.951918
v 0.856241 0.167015 -0.909299
v 1.131220 0.078727 -0.928585
v 1.394427 -0.018915 -0.955668
v -1.244513 -0.069045 -1.210212
v -1.000076 -0.018914 -1.210212
v -0.751168 -0.018914 -1.210212
v -0.499480 -0.018914 -1.210212
v -0.247974 -0.018914 -1.210212
v 0.000598 -0.018914 -1.210141
v 0.257673 -0.018914 -1.209026
v 0.524693 -0.018914 -1.207130
v 0.792197 -0.018914 -1.205197
v 1.052361 -0.018915 -1.203822
v 1.300723 -0.018915 -1.203342
v -0.022639 0.778357 0.079811
v 0.047037 0.770785 0.108713
v -0.051019 0.788304 0.010218
v 0.117194 0.770023 0.079994
v 0.146736 0.776518 0.010478
v 0.048681 0.794036 -0.088017
v -0.021477 0.794798 -0.059298
v 0.118357 0.786464 -0.059115
v -0.086603 0.785408 0.138906
v -0.042361 0.795875 0.102560
v 0.047961 0.760230 0.193285
v 0.047837 0.784852 0.137518
v -0.136391 0.808947 0.012051
v -0.079927 0.809343 0.012463
v 0.183140 0.767848 0.138918
v 0.138683 0.784999 0.102677
v 0.235058 0.783134 0.013920
v 0.178102 0.794070 0.012814
v 0.047495 0.804394 -0.169376
v 0.049914 0.814195 -0.112449
v -0.085397 0.814262 -0.113014
v -0.041045 0.817394 -0.077839
v 0.186343 0.797010 -0.112395
v 0.140730 0.806766 -0.077777
v 0.001255 0.767621 0.053791
v 0.046502 0.762617 0.072586
v 0.046455 0.754635 0.010271
v -0.016976 0.774434 0.008704
v 0.092092 0.762036 0.053945
v 0.111138 0.766641 0.008856
v 0.047610 0.778437 -0.054791
v 0.002293 0.779000 -0.036202
v 0.092641 0.773472 -0.036147
vt 0.054390 0.054958
vt 0.122708 0.048914
vt 0.194088 0.040702
vt 0.269847 0.031252
vt 0.356117 0.023389
vt 0.448840 0.019240
vt 0.544759 0.019080
vt 0.639957 0.021890
vt 0.729388 0.028233
vt 0.810373 0.034494
vt 0.882354 0.038687
vt 0.046231 0.122641
vt 0.119529 0.121641
vt 0.196288 0.125582
vt 0.276424 0.128581
vt 0.357032 0.111190
vt 0.447053 0.099344
vt 0.541144 0.092225
vt 0.635823 0.089790
vt 0.725617 0.095871
vt 0.811684 0.102555
vt 0.887018 0.106342
vt 0.034110 0.191905
vt 0.114454 0.193402
vt 0.198996 0.210374
vt 0.282530 0.223444
vt 0.359591 0.203952
vt 0.442966 0.185044
vt 0.534824 0.177468
vt 0.628420 0.172091
vt 0.730960 0.174174
vt 0.831959 0.173196
vt 0.911675 0.176505
vt 0.023034 0.262724
vt 0.111091 0.264240
vt 0.206731 0.276772
vt 0.282964 0.284700
vt 0.355811 0.273315
vt 0.439897 0.265208
vt 0.528669 0.260190
vt 0.623471 0.254465
vt 0.739233 0.253452
vt 0.854782 0.249534
vt 0.945775 0.247591
vt 0.014875 0.334526
vt 0.110870 0.335207
vt 0.211938 0.337092
vt 0.283611 0.340541
vt 0.618701 0.329552
vt 0.743365 0.326618
vt 0.870758 0.322566
vt 0.972726 0.319010
vt 0.012508 0.407413
vt 0.105905 0.406266
vt 0.206796 0.406033
vt 0.283053 0.406750
vt 0.440335 0.402458
vt 0.614498 0.398744
vt 0.742733 0.395609
vt 0.874935 0.392330
vt 0.983144 0.389881
vt 0.015242 0.480260
vt 0.107935 0.477247
vt 0.198226 0.474548
vt 0.281115 0.471883
vt 0.610679 0.465771
vt 0.733319 0.464416
vt 0.863958 0.462156
vt 0.972097 0.461977
vt 0.023625 0.552568
vt 0.113249 0.547878
vt 0.198281 0.544115
vt 0.277645 0.541710
vt 0.354114 0.542220
vt 0.436438 0.540145
vt 0.520069 0.536913
vt 0.606649 0.533423
vt 0.716096 0.522823
vt 0.835315 0.536805
vt 0.936823 0.538163
vt 0.036392 0.623653
vt 0.120799 0.618407
vt 0.199817 0.615037
vt 0.274207 0.618984
vt 0.349017 0.627380
vt 0.432319 0.620479
vt 0.516721 0.615992
vt 0.601545 0.604392
vt 0.694248 0.587795
vt 0.792574 0.605070
vt 0.886108 0.615905
vt 0.051078 0.693108
vt 0.125339 0.691058
vt 0.199589 0.692298
vt 0.273814 0.697898
vt 0.348958 0.704005
vt 0.427803 0.702496
vt 0.509628 0.699234
vt 0.593292 0.695968
vt 0.675368 0.680391
vt 0.757807 0.685021
vt 0.837342 0.690627
vt 0.057276 0.762916
vt 0.127374 0.765154
vt 0.198797 0.775661
vt 0.272864 0.785220
vt 0.348329 0.791611
vt 0.423791 0.795312
vt 0.502392 0.794550
vt 0.583632 0.788594
vt 0.663696 0.779123
vt 0.739735 0.768875
vt 0.810347 0.761668
vt 0.438451 0.337932
vt 0.405882 0.372176
vt 0.356051 0.340441
vt 0.395187 0.404384
vt 0.524795 0.333138
vt 0.439014 0.356502
vt 0.522250 0.402155
vt 0.473282 0.370468
vt 0.358203 0.470411
vt 0.440075 0.448706
vt 0.359008 0.406534
vt 0.407547 0.434840
vt 0.521300 0.467634
vt 0.486314 0.402465
vt 0.438175 0.467919
vt 0.474560 0.434462
vt 0.439245 0.371373
vt 0.423008 0.386578
vt 0.416872 0.380924
vt 0.416660 0.403684
vt 0.462404 0.379928
vt 0.439546 0.379196
vt 0.472518 0.402927
vt 0.456662 0.385879
vt 0.418068 0.426374
vt 0.440579 0.427150
vt 0.408378 0.403931
vt 0.423887 0.420418
vt 0.463309 0.426070
vt 0.464068 0.402952
vt 0.440599 0.434822
vt 0.457266 0.420087
vt 0.429248 0.392657
vt 0.439840 0.387914
vt 0.425181 0.403549
vt 0.450740 0.392253
vt 0.455399 0.403101
vt 0.440466 0.418508
vt 0.429834 0.414189
vt 0.451075 0.413988
vn -0.175440 0.964382 0.197961
vn -0.128397 0.932587 0.337338
vn -0.240765 0.923418 0.298884
vn -0.322584 0.928704 0.182888
vn -0.060870 0.870941 0.487604
vn -0.131581 0.887346 0.441932
vn -0.039520 0.833590 0.550968
vn -0.096917 0.850662 0.516702
vn -0.014117 0.815855 0.578084
vn -0.048666 0.813353 0.579732
vn 0.038338 0.840790 0.540002
vn 0.047729 0.803777 0.593014
vn 0.072022 0.908354 0.411954
vn 0.109277 0.835882 0.537922
vn 0.050696 0.964749 0.258242
vn 0.089883 0.890451 0.446114
vn 0.021353 0.986371 0.163145
vn 0.079808 0.935673 0.343725
vn 0.034001 0.994459 0.099477
vn 0.108780 0.973063 0.203262
vn 0.048580 0.997185 0.057109
vn 0.115001 0.988029 0.102829
vn -0.413591 0.881014 0.229691
vn -0.504830 0.852111 0.138034
vn -0.265642 0.885386 0.381479
vn -0.200461 0.826999 0.525250
vn -0.112523 0.793152 0.598538
vn 0.045107 0.776485 0.628519
vn 0.150078 0.770260 0.619819
vn 0.152268 0.797978 0.583135
vn 0.186709 0.843983 0.502824
vn 0.253821 0.901037 0.351721
vn 0.278271 0.927018 0.251402
vn -0.531382 0.831389 0.162561
vn -0.588874 0.802802 0.093474
vn -0.424193 0.845622 0.324012
vn -0.319237 0.808966 0.493622
vn -0.163333 0.805437 0.569732
vn 0.039831 0.817815 0.574102
vn 0.179409 0.815771 0.549846
vn 0.212499 0.832841 0.511097
vn 0.276693 0.847884 0.452253
vn 0.377194 0.853637 0.359205
vn 0.439305 0.851375 0.286658
vn -0.600447 0.792600 0.106057
vn -0.629002 0.775361 0.056331
vn -0.546323 0.812120 0.204921
vn -0.419559 0.851197 0.315333
vn -0.247687 0.872064 0.422086
vn 0.038347 0.830576 0.555583
vn 0.239921 0.875196 0.420082
vn 0.276834 0.899145 0.338972
vn 0.342614 0.897146 0.278826
vn 0.462474 0.858168 0.222856
vn 0.542748 0.819268 0.185002
vn -0.638085 0.768699 0.044159
vn -0.655669 0.754706 0.022750
vn -0.592145 0.803204 0.065022
vn -0.467414 0.881391 0.068374
vn -0.387182 0.919285 0.070745
vn 0.264466 0.960330 -0.088457
vn 0.060294 0.987580 -0.145091
vn 0.059811 0.991049 0.119348
vn 0.310271 0.942891 0.121195
vn -0.148231 0.984808 -0.090445
vn -0.197524 0.972857 0.120559
vn 0.327019 0.940031 0.096952
vn 0.344096 0.931952 0.114292
vn 0.382634 0.922213 0.055798
vn 0.501764 0.864847 0.016526
vn 0.588348 0.808606 -0.001795
vn -0.640334 0.766613 -0.047713
vn -0.667413 0.744019 -0.031556
vn -0.570549 0.813719 -0.111066
vn -0.424387 0.877132 -0.224798
vn -0.266010 0.896538 -0.354200
vn 0.056170 0.930856 0.361043
vn 0.250591 0.916962 0.310460
vn -0.140590 0.939870 0.311253
vn 0.327382 0.923779 -0.198630
vn 0.249395 0.921472 -0.297812
vn 0.387462 0.901648 -0.192104
vn 0.492653 0.842555 -0.217703
vn 0.576461 0.787357 -0.218545
vn -0.597440 0.789168 -0.142405
vn -0.645235 0.758226 -0.093625
vn -0.468579 0.838977 -0.276680
vn -0.286635 0.844841 -0.451758
vn -0.163256 0.813342 -0.558411
vn 0.000691 0.873169 -0.487418
vn -0.031481 0.824368 -0.565179
vn 0.152881 0.847181 -0.508833
vn 0.290406 0.840309 -0.457762
vn 0.347461 0.843605 -0.409391
vn 0.436887 0.811688 -0.387675
vn 0.522385 0.767149 -0.372286
vn -0.494854 0.834132 -0.243606
vn -0.565616 0.810397 -0.152755
vn -0.319735 0.856277 -0.405659
vn -0.137525 0.833953 -0.534423
vn -0.101735 0.795380 -0.597512
vn -0.063886 0.783915 -0.617573
vn 0.092954 0.794034 -0.600725
vn 0.239194 0.797888 -0.553318
vn 0.293733 0.821571 -0.488612
vn 0.345067 0.837685 -0.423335
vn 0.446163 0.799082 -0.402997
vn -0.315554 0.875059 -0.367013
vn -0.399453 0.880434 -0.255487
vn -0.161021 0.837298 -0.522499
vn -0.050721 0.806671 -0.588820
vn -0.051394 0.782526 -0.620493
vn -0.047367 0.757705 -0.650876
vn 0.050738 0.753290 -0.655728
vn 0.141142 0.786280 -0.601534
vn 0.196172 0.844741 -0.497925
vn 0.234155 0.891641 -0.387490
vn 0.311278 0.891810 -0.328301
vn -0.198986 0.883482 -0.424104
vn -0.284070 0.903871 -0.319877
vn -0.081350 0.816126 -0.572119
vn -0.027236 0.767835 -0.640069
vn -0.025038 0.741382 -0.670616
vn -0.021516 0.716522 -0.697232
vn 0.028138 0.715593 -0.697950
vn 0.075695 0.759657 -0.645904
vn 0.106146 0.833044 -0.542929
vn 0.144973 0.911439 -0.385048
vn 0.170434 0.956953 -0.234933
vn -0.236560 0.859600 0.452910
vn 0.085721 0.981935 0.168687
vn 0.099798 0.988332 0.115065
vn -0.371084 0.924374 0.088487
vn 0.041988 0.787373 0.615045
vn 0.062029 0.976551 0.206157
vn 0.295014 0.845050 0.445934
vn 0.052322 0.982808 0.177063
vn 0.081238 0.994784 0.061686
vn -0.256891 0.927451 -0.271739
vn 0.410971 0.904201 0.116294
vn 0.054275 0.991729 0.116312
vn 0.304474 0.922849 -0.235894
vn 0.057520 0.996957 0.052621
vn 0.035806 0.907398 -0.418745
vn 0.063243 0.997602 0.028127
vn 0.055993 0.928109 -0.368075
vn 0.393491 0.890933 -0.226720
vn 0.526322 0.843818 0.104672
vn -0.284768 0.931180 -0.227620
vn -0.423373 0.899964 0.104026
vn 0.386190 0.814914 0.432172
vn 0.047644 0.819732 0.570763
vn -0.288519 0.854732 0.431498
s 1
g Geysir
usemtl initialShadingGroup
f 1/1/1 2/2/2 13/13/3 12/12/4
f 2/2/2 3/3/5 14/14/6 13/13/3
f 3/3/5 4/4/7 15/15/8 14/14/6
f 4/4/7 5/5/9 16/16/10 15/15/8
f 5/5/9 6/6/11 17/17/12 16/16/10
f 6/6/11 7/7/13 18/18/14 17/17/12
f 7/7/13 8/8/15 19/19/16 18/18/14
f 8/8/15 9/9/17 20/20/18 19/19/16
f 9/9/17 10/10/19 21/21/20 20/20/18
f 10/10/19 11/11/21 22/22/22 21/21/20
f 12/12/4 13/13/3 24/24/23 23/23/24
f 13/13/3 14/14/6 25/25/25 24/24/23
f 14/14/6 15/15/8 26/26/26 25/25/25
f 15/15/8 16/16/10 27/27/27 26/26/26
f 16/16/10 17/17/12 28/28/28 27/27/27
f 17/17/12 18/18/14 29/29/29 28/28/28
f 18/18/14 19/19/16 30/30/30 29/29/29
f 19/19/16 20/20/18 31/31/31 30/30/30
f 20/20/18 21/21/20 32/32/32 31/31/31
f 21/21/20 22/22/22 33/33/33 32/32/32
f 23/23/24 24/24/23 35/35/34 34/34/35
f 24/24/23 25/25/25 36/36/36 35/35/34
f 25/25/25 26/26/26 37/37/37 36/36/36
f 26/26/26 27/27/27 38/38/38 37/37/37
f 27/27/27 28/28/28 39/39/39 38/38/38
f 28/28/28 29/29/29 40/40/40 39/39/39
f 29/29/29 30/30/30 41/41/41 40/40/40
f 30/30/30 31/31/31 42/42/42 41/41/41
f 31/31/31 32/32/32 43/43/43 42/42/42
f 32/32/32 33/33/33 44/44/44 43/43/43
f 34/34/35 35/35/34 46/46/45 45/45/46
f 35/35/34 36/36/36 47/47/47 46/46/45
f 36/36/36 37/37/37 48/48/48 47/47/47
f 37/37/37 38/38/38 49/116/49 48/48/48
f 38/38/38 39/39/39 50/114/50 49/116/49
f 39/39/39 40/40/40 51/118/51 50/114/50
f 40/40/40 41/41/41 52/49/52 51/118/51
f 41/41/41 42/42/42 53/50/53 52/49/52
f 42/42/42 43/43/43 54/51/54 53/50/53
f 43/43/43 44/44/44 55/52/55 54/51/54
f 45/45/46 46/46/45 57/54/56 56/53/57
f 46/46/45 47/47/47 58/55/58 57/54/56
f 47/47/47 48/48/48 59/56/59 58/55/58
f 48/48/48 49/116/49 60/124/60 59/56/59
f 145/146/61 146/147/62 147/57/63 148/148/64
f 146/147/62 149/149/65 150/150/66 147/57/63
f 51/118/51 52/49/52 62/58/67 61/120/68
f 52/49/52 53/50/53 63/59/69 62/58/67
f 53/50/53 54/51/54 64/60/70 63/59/69
f 54/51/54 55/52/55 65/61/71 64/60/70
f 56/53/57 57/54/56 67/63/72 66/62/73
f 57/54/56 58/55/58 68/64/74 67/63/72
f 58/55/58 59/56/59 69/65/75 68/64/74
f 59/56/59 60/124/60 70/122/76 69/65/75
f 148/148/64 147/57/63 151/151/77 152/152/78
f 147/57/63 150/150/66 153/153/79 151/151/77
f 61/120/68 62/58/67 73/66/80 72/126/81
f 62/58/67 63/59/69 74/67/82 73/66/80
f 63/59/69 64/60/70 75/68/83 74/67/82
f 64/60/70 65/61/71 76/69/84 75/68/83
f 66/62/73 67/63/72 78/71/85 77/70/86
f 67/63/72 68/64/74 79/72/87 78/71/85
f 68/64/74 69/65/75 80/73/88 79/72/87
f 69/65/75 70/122/76 81/74/89 80/73/88
f 70/122/76 71/128/90 82/75/91 81/74/89
f 71/128/90 72/126/81 83/76/92 82/75/91
f 72/126/81 73/66/80 84/77/93 83/76/92
f 73/66/80 74/67/82 85/78/94 84/77/93
f 74/67/82 75/68/83 86/79/95 85/78/94
f 75/68/83 76/69/84 87/80/96 86/79/95
f 77/70/86 78/71/85 89/82/97 88/81/98
f 78/71/85 79/72/87 90/83/99 89/82/97
f 79/72/87 80/73/88 91/84/100 90/83/99
f 80/73/88 81/74/89 92/85/101 91/84/100
f 81/74/89 82/75/91 93/86/102 92/85/101
f 82/75/91 83/76/92 94/87/103 93/86/102
f 83/76/92 84/77/93 95/88/104 94/87/103
f 84/77/93 85/78/94 96/89/105 95/88/104
f 85/78/94 86/79/95 97/90/106 96/89/105
f 86/79/95 87/80/96 98/91/107 97/90/106
f 88/81/98 89/82/97 100/93/108 99/92/109
f 89/82/97 90/83/99 101/94/110 100/93/108
f 90/83/99 91/84/100 102/95/111 101/94/110
f 91/84/100 92/85/101 103/96/112 102/95/111
f 92/85/101 93/86/102 104/97/113 103/96/112
f 93/86/102 94/87/103 105/98/114 104/97/113
f 94/87/103 95/88/104 106/99/115 105/98/114
f 95/88/104 96/89/105 107/100/116 106/99/115
f 96/89/105 97/90/106 108/101/117 107/100/116
f 97/90/106 98/91/107 109/102/118 108/101/117
f 99/92/109 100/93/108 111/104/119 110/103/120
f 100/93/108 101/94/110 112/105/121 111/104/119
f 101/94/110 102/95/111 113/106/122 112/105/121
f 102/95/111 103/96/112 114/107/123 113/106/122
f 103/96/112 104/97/113 115/108/124 114/107/123
f 104/97/113 105/98/114 116/109/125 115/108/124
f 105/98/114 106/99/115 117/110/126 116/109/125
f 106/99/115 107/100/116 118/111/127 117/110/126
f 107/100/116 108/101/117 119/112/128 118/111/127
f 108/101/117 109/102/118 120/113/129 119/112/128
f 129/115/130 130/132/131 134/140/132 133/117/133
f 130/132/131 129/115/130 131/119/134 132/130/135
f 132/130/135 131/119/134 135/121/136 136/134/137
f 133/117/133 134/140/132 142/138/138 141/125/139
f 136/134/137 135/121/136 137/127/140 138/136/141
f 138/136/141 137/127/140 143/129/142 144/142/143
f 139/123/144 140/144/145 144/142/143 143/129/142
f 140/144/145 139/123/144 141/125/139 142/138/138
f 49/116/49 50/114/50 131/119/134 129/115/130
f 60/124/60 49/116/49 129/115/130 133/117/133
f 50/114/50 51/118/51 135/121/136 131/119/134
f 51/118/51 61/120/68 137/127/140 135/121/136
f 71/128/90 70/122/76 141/125/139 139/123/144
f 70/122/76 60/124/60 133/117/133 141/125/139
f 61/120/68 72/126/81 143/129/142 137/127/140
f 72/126/81 71/128/90 139/123/144 143/129/142
f 130/132/131 132/130/135 122/135/146 121/131/147
f 134/140/132 130/132/131 121/131/147 123/133/148
f 132/130/135 136/134/137 124/137/149 122/135/146
f 136/134/137 138/136/141 125/143/150 124/137/149
f 140/144/145 142/138/138 127/141/151 126/139/152
f 142/138/138 134/140/132 123/133/148 127/141/151
f 138/136/141 144/142/143 128/145/153 125/143/150
f 144/142/143 140/144/145 126/139/152 128/145/153
f 121/131/147 122/135/146 146/147/62 145/146/61
f 123/133/148 121/131/147 145/146/61 148/148/64
f 122/135/146 124/137/149 149/149/65 146/147/62
f 124/137/149 125/143/150 150/150/66 149/149/65
f 126/139/152 127/141/151 152/152/78 151/151/77
f 127/141/151 123/133/148 148/148/64 152/152/78
f 125/143/150 128/145/153 153/153/79 150/150/66
f 128/145/153 126/139/152 151/151/77 153/153/79
